<?xml version="1.0" encoding="utf-8"?>
<!-- Generator: Adobe Illustrator 23.1.0, SVG Export Plug-In . SVG Version: 6.00 Build 0)  -->
<svg version="1.1" id="Vrstva_1" xmlns="http://www.w3.org/2000/svg" xmlns:xlink="http://www.w3.org/1999/xlink" x="0px" y="0px"
	 width="159.9px" height="120px" viewBox="0 0 159.9 120" style="enable-background:new 0 0 159.9 120;" xml:space="preserve">
<style type="text/css">
	.st0{fill:none;}
	.st1{fill:#E9D0A2;}
	.st2{fill:#D8C297;}
	.st3{fill:#F2D7A6;}
	.st4{fill:#FFFFFF;}
	.st5{fill:#30292B;}
	.st6{fill:#93424E;}
	.st7{fill:#E28580;}
	.st8{fill:#B95DA0;}
	.st9{fill:#AD5797;}
	.st10{fill:#B0A07D;}
</style>
<g>
	<path class="st0" d="M74.8,89.6c0.7-0.5,1.3-1.3,1.8-2.4C76.1,88.2,75.5,89,74.8,89.6z"/>
	<path class="st1" d="M78.1,64.3v5.5c0.7-0.3,1.6-0.6,2.5-0.7c1.5-10.9,5-22,12-30.8c-1.8,1.4-3.6,3.7-5.4,7.3
		c-0.1,0.3-0.2,0.5-0.2,0.7l-2.4,6c-4.9-1.8-9.3-7.6-11.5-15c-3,1.9-4.8,3.7-4.8,3.7c-2.6,2.2-4.9,5.3-6.9,8.5l3.8,0.8
		c1.1,0.2,2.3,0.3,2.1,1.4c-0.2,1.1-1.2,1-2.3,0.8l-5-0.6c-0.5,1-1,2-1.5,3h10.1C73.9,54.8,78.1,59.1,78.1,64.3z"/>
	<path class="st1" d="M68.3,110.5c2.7,1.9,8,4.8,14.7,4l0,0c-0.1-0.4-5-20.5-2.8-42.1c-0.9,0.3-1.7,0.8-2.1,1.2v7.4
		c0,1.1-0.2,2.1-0.5,3.1c-0.2,1.2-0.5,2.2-1,3c-0.5,1.1-1.1,1.9-1.8,2.4c-1.4,1.3-2.9,1.7-2.9,1.7c-6.3,1.6-15.3,1.2-20.1,1.1
		c0.7,9.1,2.5,17.3,2.5,17.3c1.1,3.7,2.3,7.1,3.6,10.3H74C72.6,117.9,70.3,114.3,68.3,110.5z"/>
	<path class="st2" d="M71.3,90.6c0,0,1.9,0.2,3.5-1c0.6-0.6,1.3-1.4,1.8-2.4c0.2-0.6,0.4-1.2,0.5-2c-1.5,3.1-4.7,5.3-8.4,5.3h-17
		c0,0.6,0.1,1.2,0.1,1.8c0,0,0,0,0,0c0-0.2,0-0.4-0.1-0.7C56.6,91.8,65,92.2,71.3,90.6z"/>
	<path class="st2" d="M71.9,91.3c0,0,1.4-0.4,2.9-1.7c-1.6,1.2-3.5,1-3.5,1c-6.3,1.6-14.7,1.2-19.5,1.1c0,0.2,0,0.4,0.1,0.7
		C56.6,92.4,65.7,92.9,71.9,91.3z"/>
	<path class="st2" d="M76.6,87.2c0.4-0.8,0.8-1.8,1-3c-0.1,0.4-0.3,0.7-0.4,1.1C77,86,76.8,86.6,76.6,87.2z"/>
	<path class="st3" d="M88.3,88.7c-2.4-1.7-3.9-4.5-3.9-7.6v-7.4c-0.7-0.6-1.5-1.1-2.2-1.2c-1.1,10.9-0.6,24.1,3,39.7
		c0,0,0.2,0.7,0.6,2c2.8-0.7,5.8-2,9-4.2c-0.3,2.5-0.9,5.1-1.7,7.5c-0.3,0.9-0.7,1.8-1,2.6h8.9c0.6-12.9,6.2-22,6.2-22
		c1.3-1.8,2.4-3.7,3.4-5.5H96.7C92,92.4,89.5,90.3,88.3,88.7z"/>
	<path class="st3" d="M85.2,112.1c-3.6-15.6-4.1-28.8-3-39.7c-0.4-0.1-0.7-0.1-1.1-0.1c-0.3,0-0.6,0.1-0.9,0.2
		c-2.2,21.6,2.7,41.8,2.8,42.1l0,0c0.9-0.1,1.8-0.3,2.8-0.5C85.4,112.8,85.2,112.1,85.2,112.1z"/>
	<path class="st3" d="M113.5,51.4l-18.2,2.2c-1,0.2-2.1,0.4-2.4-0.4c-0.4,0-0.8-0.2-0.9-0.7c-0.2-1.1,0.8-1.4,1.8-1.6l17-4.6
		c-2.8-3.8-5.7-6.7-8.5-8.8c0,0.1,0,0.2,0,0.4c-0.7-0.6-1.4-1.1-2.1-1.5c-1.3-0.4-3.6-0.6-6.3,1c-0.4,0.2-0.8,0.5-1.2,0.9
		c-7,8.8-10.5,19.9-12,30.8c0.1,0,0.3,0,0.4,0c0.5,0,1.1,0,1.6,0.1c0.6,0.1,1.2,0.3,1.8,0.6v-5.5c0-5.2,4.2-9.4,9.4-9.4h20.8
		C114.3,53.6,113.9,52.4,113.5,51.4z"/>
	<path class="st2" d="M92.8,53.2c0.3,0.9,1.4,0.6,2.4,0.4l18.2-2.2c-0.3-0.7-0.5-1.2-0.7-1.7L94.5,53C93.9,53.1,93.3,53.3,92.8,53.2
		z"/>
	<path class="st2" d="M88.3,88.7c1.2,1.6,3.6,3.8,8.4,3.8h13.9c0.4-0.7,0.7-1.3,1-2H93.9C91.8,90.5,89.9,89.8,88.3,88.7z"/>
	<path class="st4" d="M51.7,85.1c0.1-6.2,0.8-12.9,2.7-19.5c0,0,1-3.2,2.8-7.5H44.6c-3.4,0-6.2,2.8-6.2,6.2v16.8
		c0,3.4,2.8,6.2,6.2,6.2h7C51.6,86.6,51.7,85.9,51.7,85.1z"/>
	<path class="st4" d="M74.9,64.3c0-3.4-2.8-6.2-6.2-6.2H57.1c-1.8,4.3-2.8,7.5-2.8,7.5c-1.9,6.6-2.6,13.4-2.7,19.5l16.7-1.2l6.2-0.9
		c0.2-0.6,0.3-1.3,0.3-2V64.3z M63.4,76.5c-0.3,0-0.6,0-0.9-0.1c-0.2,0.1-0.4,0.1-0.6,0.1c-0.8,0-1.5-0.7-1.5-1.5
		c-0.6-0.7-0.9-1.6-0.9-2.6c0-2.3,1.8-4.1,3.9-4.1c2.2,0,3.9,1.9,3.9,4.1C67.4,74.7,65.6,76.5,63.4,76.5z"/>
	<path class="st4" d="M51.7,85.1c0,0.8,0,1.5,0,2.1h17.1c2.4,0,4.4-1.3,5.5-3.3h-5.8L51.7,85.1z"/>
	<path class="st4" d="M74.2,83.9c0.2-0.3,0.3-0.6,0.4-0.9l-6.2,0.9H74.2z"/>
	<path class="st5" d="M44.6,88.9c-4.3,0-7.8-3.5-7.8-7.8V64.3c0-4.3,3.5-7.8,7.8-7.8h13.2c0.2-0.5,0.5-1.1,0.8-1.6H44.6
		c-5.2,0-9.4,4.2-9.4,9.4v16.8c0,5.2,4.2,9.4,9.4,9.4h7.1c0-0.6,0-1.1-0.1-1.6H44.6z"/>
	<path class="st5" d="M68.7,56.5c4.3,0,7.8,3.5,7.8,7.8v6.5c0.4-0.3,1-0.7,1.6-1v-5.5c0-5.2-4.2-9.4-9.4-9.4H58.6
		c-0.3,0.6-0.5,1.1-0.8,1.6H68.7z"/>
	<path class="st5" d="M77.7,74L76.5,73v8.1c0,0.6-0.1,1.2-0.2,1.7l1.4-0.2c0,0.6-0.1,1.1-0.2,1.6c0.3-1,0.5-2,0.5-3.1v-7.4
		C77.9,73.9,77.7,74,77.7,74z"/>
	<path class="st5" d="M77.1,85.2c0.1-0.4,0.1-0.8,0.1-1.3h-1.3c-1.1,2.9-4,4.9-7.2,4.9h-17c0,0.5,0,1.1,0.1,1.6h17
		C72.4,90.5,75.6,88.3,77.1,85.2z"/>
	<path class="st5" d="M76.3,82.8c-0.1,0.4-0.2,0.8-0.4,1.1h1.3c0,0.5-0.1,0.9-0.1,1.3c0.2-0.3,0.3-0.7,0.4-1.1
		c0.1-0.5,0.1-1,0.2-1.6L76.3,82.8z"/>
	<path class="st5" d="M44.6,87.2c-3.4,0-6.2-2.8-6.2-6.2V64.3c0-3.4,2.8-6.2,6.2-6.2h12.5c0.2-0.5,0.5-1.1,0.7-1.6H44.6
		c-4.3,0-7.8,3.5-7.8,7.8v16.8c0,4.3,3.5,7.8,7.8,7.8h7c0-0.5,0-1,0-1.6H44.6z"/>
	<path class="st5" d="M68.7,58.1c3.4,0,6.2,2.8,6.2,6.2v16.8c0,0.7-0.1,1.4-0.3,2l1.8-0.3c0.1-0.6,0.2-1.1,0.2-1.7V73l-1.2-1.1
		c0,0,0.5-0.6,1.2-1.1v-6.5c0-4.3-3.5-7.8-7.8-7.8H57.8c-0.2,0.6-0.5,1.1-0.7,1.6H68.7z"/>
	<path class="st5" d="M68.7,87.2H51.6c0,0.6,0,1.1,0,1.6h17c3.3,0,6.1-2,7.2-4.9h-1.8C73.1,85.9,71.1,87.2,68.7,87.2z"/>
	<path class="st5" d="M74.5,83c-0.1,0.3-0.2,0.6-0.4,0.9h1.8c0.1-0.4,0.3-0.7,0.4-1.1L74.5,83z"/>
	<path class="st5" d="M78.1,69.8v3.9c0.4-0.4,1.2-0.9,2.1-1.2c0.1-1.1,0.3-2.2,0.4-3.4C79.7,69.2,78.8,69.4,78.1,69.8z"/>
	<path class="st5" d="M84.4,73.7v-3.9c-0.6-0.3-1.2-0.5-1.8-0.6c-0.1,1.1-0.3,2.1-0.4,3.3C83,72.6,83.7,73,84.4,73.7z"/>
	<path class="st5" d="M82.2,72.4c0.1-1.1,0.2-2.2,0.4-3.3C82.1,69.1,81.5,69,81,69c-0.1,0-0.3,0-0.4,0c-0.2,1.1-0.3,2.2-0.4,3.4
		c0.3-0.1,0.6-0.1,0.9-0.2C81.5,72.3,81.9,72.3,82.2,72.4z"/>
	<path class="st5" d="M76.5,70.8V73l1.2,1.1c0,0,0.1-0.2,0.4-0.4v-3.9C77.5,70.1,76.9,70.4,76.5,70.8z"/>
	<path class="st5" d="M75.3,71.9l1.2,1.1v-2.2C75.7,71.3,75.3,71.9,75.3,71.9z"/>
	<path class="st6" d="M84.1,119.7c-0.9-3.2-1.1-5.1-1.1-5.1c-6.8,0.7-12-2.1-14.7-4c2.1,3.8,4.4,7.3,5.8,9.4H84
		C84,119.9,84.1,119.8,84.1,119.7z"/>
	<path class="st6" d="M89.2,116.5c1.4-0.1,2.7,0.2,3.8,0.9c0.8-2.4,1.4-5,1.7-7.5c-3.2,2.2-6.2,3.5-9,4.2c0.3,0.8,0.6,1.9,1,3.2
		C87.5,116.8,88.3,116.6,89.2,116.5z"/>
	<path class="st6" d="M86.7,117.3c-0.4-1.3-0.7-2.3-1-3.2c-0.9,0.2-1.9,0.4-2.8,0.5c0,0,0.3,2,1.1,5.1
		C84.8,118.7,85.7,117.8,86.7,117.3z"/>
	<path class="st7" d="M84,120h0.2c0-0.1,0-0.2-0.1-0.2C84.1,119.8,84,119.9,84,120z"/>
	<path class="st7" d="M89.2,116.5c-0.9,0.1-1.7,0.4-2.5,0.8c0.3,0.8,0.6,1.7,0.9,2.7H92c0.4-0.8,0.7-1.7,1-2.6
		C91.9,116.7,90.6,116.4,89.2,116.5z"/>
	<path class="st7" d="M84.1,119.7c0,0.1,0,0.2,0.1,0.2h3.4c-0.3-1-0.6-1.9-0.9-2.7C85.7,117.8,84.8,118.7,84.1,119.7z"/>
	<path class="st5" d="M63.4,68.2c-2.2,0-3.9,1.9-3.9,4.1c0,1,0.3,1.9,0.9,2.6c0,0,0,0,0,0c0-0.8,0.7-1.5,1.5-1.5
		c0.8,0,1.5,0.7,1.5,1.5c0,0.6-0.4,1.2-0.9,1.4c0.3,0.1,0.6,0.1,0.9,0.1c2.2,0,3.9-1.9,3.9-4.1C67.4,70.1,65.6,68.2,63.4,68.2z
		 M63.4,73.6c-0.5,0-0.8-0.4-0.8-0.8c0-0.5,0.4-0.8,0.8-0.8c0.5,0,0.8,0.4,0.8,0.8C64.3,73.2,63.9,73.6,63.4,73.6z"/>
	<path class="st4" d="M60.4,75c0,0.8,0.7,1.5,1.5,1.5c0.2,0,0.4,0,0.6-0.1C61.6,76.2,60.9,75.7,60.4,75z"/>
	<path class="st4" d="M63.4,75c0-0.8-0.7-1.5-1.5-1.5c-0.8,0-1.5,0.7-1.5,1.5c0,0,0,0,0,0c0.5,0.7,1.3,1.2,2.1,1.4
		C63,76.2,63.4,75.6,63.4,75z"/>
	<path class="st4" d="M63.4,71.9c-0.5,0-0.8,0.4-0.8,0.8c0,0.5,0.4,0.8,0.8,0.8c0.5,0,0.8-0.4,0.8-0.8
		C64.3,72.3,63.9,71.9,63.4,71.9z"/>
	<path class="st5" d="M44.6,45.9c-1.1-0.2-2.1,0.6-2.3,1.7c-0.2,1.1,0.6,2.1,1.7,2.3l16.1,1.9c0.4-0.8,0.9-1.6,1.4-2.4L44.6,45.9z"
		/>
	<path class="st5" d="M67.4,51.7c0.2-1.1-1-1.2-2.1-1.4l-3.8-0.8c-0.5,0.8-0.9,1.6-1.4,2.4l5,0.6C66.1,52.7,67.2,52.8,67.4,51.7z"/>
	<path class="st5" d="M111.9,47.9c0.2,0.4,0.5,1,0.9,1.8l2.4-0.4c1.1-0.2,1.8-1.3,1.5-2.4c-0.2-1.1-1.3-1.8-2.4-1.5l-3.5,1
		c0.3,0.4,0.6,0.8,0.9,1.2C111.7,47.5,111.8,47.6,111.9,47.9z"/>
	<path class="st5" d="M92,52.5c0.1,0.5,0.4,0.7,0.9,0.7c0-0.1,0-0.1,0-0.2c-0.2-1.1,0.8-1.3,1.9-1.5l17.2-3.7
		c-0.1-0.3-0.2-0.4-0.2-0.4c-0.3-0.4-0.6-0.8-0.9-1.2l-17,4.6C92.7,51.1,91.7,51.4,92,52.5z"/>
	<path class="st5" d="M94.7,51.5c-1.1,0.2-2.1,0.4-1.9,1.5c0,0.1,0,0.1,0,0.2c0.5,0,1.1-0.1,1.6-0.3l18.3-3.3
		c-0.4-0.8-0.7-1.4-0.9-1.8L94.7,51.5z"/>
	<path class="st4" d="M115,81.6c-0.5,1.8-1.2,3.7-1.9,5.6h4.8c3.4,0,6.2-2.8,6.2-6.2V64.3c0-3.4-2.8-6.2-6.2-6.2h-2.4
		C116.9,64.2,117.6,72.4,115,81.6z"/>
	<path class="st4" d="M115,81.6c2.6-9.2,1.9-17.5,0.5-23.5H93.9c-3.4,0-6.2,2.8-6.2,6.2v16.8c0,2,1,3.8,2.5,4.9l22.8-7.4L115,81.6z
		 M98.8,76.5c-0.3,0-0.6,0-0.9-0.1c-0.2,0.1-0.4,0.1-0.6,0.1c-0.8,0-1.5-0.7-1.5-1.5c-0.6-0.7-0.9-1.6-0.9-2.6
		c0-2.3,1.8-4.1,3.9-4.1c2.2,0,3.9,1.9,3.9,4.1C102.8,74.7,101,76.5,98.8,76.5z"/>
	<path class="st4" d="M113.1,87.2c0.8-1.9,1.4-3.8,1.9-5.6l-2.1-3L90.2,86c1,0.8,2.3,1.2,3.7,1.2H113.1z"/>
	<path class="st5" d="M117.9,56.5c4.3,0,7.8,3.5,7.8,7.8v16.8c0,4.3-3.5,7.8-7.8,7.8h-5.5c-0.2,0.5-0.5,1.1-0.8,1.6h6.3
		c5.2,0,9.4-4.2,9.4-9.4V64.3c0-5.2-4.2-9.4-9.4-9.4h-3.2c0.2,0.5,0.3,1.1,0.5,1.6H117.9z"/>
	<path class="st5" d="M84.4,64.3v5.5c0.6,0.3,1.1,0.6,1.6,1v-6.5c0-4.3,3.5-7.8,7.8-7.8h21.3c-0.2-0.6-0.3-1.1-0.5-1.6H93.9
		C88.7,54.8,84.4,59.1,84.4,64.3z"/>
	<path class="st5" d="M86.1,81.1V73l-1.1,1.1c-0.2-0.2-0.3-0.3-0.5-0.4v7.4c0,3.1,1.5,5.9,3.9,7.6c-0.7-1-1-1.8-1-1.8l1-0.3
		C86.9,85.2,86.1,83.2,86.1,81.1z"/>
	<path class="st5" d="M93.9,88.9c-2.2,0-4.1-0.9-5.5-2.3l-1,0.3c0,0,0.2,0.8,1,1.8c1.6,1.1,3.5,1.8,5.5,1.8h17.7
		c0.3-0.5,0.5-1.1,0.8-1.6H93.9z"/>
	<path class="st5" d="M84.9,74.1l1.1-1.1v-2.2c-0.5-0.4-1.1-0.8-1.6-1v3.9C84.6,73.8,84.7,73.9,84.9,74.1z"/>
	<path class="st5" d="M117.9,58.1c3.4,0,6.2,2.8,6.2,6.2v16.8c0,3.4-2.8,6.2-6.2,6.2h-4.8c-0.2,0.5-0.5,1.1-0.7,1.6h5.5
		c4.3,0,7.8-3.5,7.8-7.8V64.3c0-4.3-3.5-7.8-7.8-7.8h-2.8c0.1,0.5,0.3,1.1,0.4,1.6H117.9z"/>
	<path class="st5" d="M86.1,73v8.1c0,2.2,0.9,4.1,2.3,5.5l1.8-0.6c-1.5-1.1-2.5-2.9-2.5-4.9V64.3c0-3.4,2.8-6.2,6.2-6.2h21.7
		c-0.1-0.6-0.3-1.1-0.4-1.6H93.9c-4.3,0-7.8,3.5-7.8,7.8v6.5c0.4,0.3,0.8,0.6,1.2,1L86.1,73z"/>
	<path class="st5" d="M93.9,87.2c-1.4,0-2.7-0.5-3.7-1.2l-1.8,0.6c1.4,1.4,3.4,2.3,5.5,2.3h18.5c0.2-0.5,0.5-1.1,0.7-1.6H93.9z"/>
	<path class="st5" d="M87.2,71.8c-0.4-0.4-0.8-0.7-1.2-1V73L87.2,71.8z"/>
	<path class="st8" d="M88.5,32.6c0,0,0.4-13,6.8-18.4c0,0-1.5,10.8,1.7,13c0,0,1.8-5.3,8.9-6.1c0,0-2.1,3.9-1.5,7.8
		c0,0-0.2-3,5.6-0.2c0,0-6.5,1.4-6.8,3.8l4.9,1.6c0,0-6.5-1.1-6.8,2.6c0,0,0,0,0,0c0.4,0.2,0.7,0.5,1.1,0.8c0-0.1,0-0.2,0-0.3
		c0.8-2.6,8.8-0.3,8.8-0.3c0.2-2.6-3.8-3.6-6.2-4.1c2.5-1.5,5.3-2.8,7.7-4.2c-2.8-1.4-3.4-2.1-6.9-1.4c-0.2-3.3,1.5-5.8,4.5-7.4
		c-4.1-0.6-9.7,0.5-13,3.1c0.4-4.3,0.2-7.6,1.4-13c-6.2,1-11.8,11.3-11.3,16.8c-3.9-7-1.7-16.6,0-26.8C87.4,0,79.7,27.9,88.5,32.6z"
		/>
	<path class="st8" d="M87,46.3c0.1-0.2,0.1-0.4,0.2-0.7c-0.9,1.9-1.8,4.1-2.7,6.7L87,46.3z"/>
	<path class="st8" d="M87.4,0C71.7,9,69.5,25.2,73.1,37.3c2.2,7.3,6.6,13.2,11.5,15c0,0-5.6-6.9-8.1-16.8
		C73.9,25.4,74.5,12.2,87.4,0z"/>
	<path class="st8" d="M100.2,36.3c0.7,0.4,1.4,0.9,2.1,1.5c0-0.1,0-0.2,0-0.4c-0.4-0.3-0.7-0.5-1.1-0.8
		C101.1,36.7,100.7,36.5,100.2,36.3z"/>
	<path class="st5" d="M98.8,68.2c-2.2,0-3.9,1.9-3.9,4.1c0,1,0.3,1.9,0.9,2.6c0,0,0,0,0,0c0-0.8,0.7-1.5,1.5-1.5
		c0.8,0,1.5,0.7,1.5,1.5c0,0.6-0.4,1.2-0.9,1.4c0.3,0.1,0.6,0.1,0.9,0.1c2.2,0,3.9-1.9,3.9-4.1C102.8,70.1,101,68.2,98.8,68.2z
		 M98.8,73.6c-0.5,0-0.8-0.4-0.8-0.8c0-0.5,0.4-0.8,0.8-0.8c0.5,0,0.8,0.4,0.8,0.8C99.7,73.2,99.3,73.6,98.8,73.6z"/>
	<path class="st4" d="M95.8,75c0,0.8,0.7,1.5,1.5,1.5c0.2,0,0.4,0,0.6-0.1C97,76.2,96.3,75.7,95.8,75z"/>
	<path class="st4" d="M98.8,75c0-0.8-0.7-1.5-1.5-1.5c-0.8,0-1.5,0.7-1.5,1.5c0,0,0,0,0,0c0.5,0.7,1.3,1.2,2.1,1.4
		C98.4,76.2,98.8,75.6,98.8,75z"/>
	<path class="st4" d="M98.8,71.9c-0.5,0-0.8,0.4-0.8,0.8c0,0.5,0.4,0.8,0.8,0.8c0.5,0,0.8-0.4,0.8-0.8
		C99.7,72.3,99.3,71.9,98.8,71.9z"/>
	<path class="st9" d="M110,28.7c-5.9-2.8-5.6,0.2-5.6,0.2c-0.5-3.9,1.5-7.8,1.5-7.8c-7.1,0.8-8.9,6.1-8.9,6.1
		c-3.2-2.2-1.7-13-1.7-13c-6.4,5.4-6.8,18.4-6.8,18.4C79.7,27.9,87.4,0,87.4,0C74.5,12.2,73.9,25.4,76.5,35.4
		c2.5,9.9,8.1,16.8,8.1,16.8c0.8-2.6,1.7-4.9,2.7-6.7c1.8-3.6,3.6-5.9,5.4-7.3c0.4-0.3,0.8-0.6,1.2-0.9c2.7-1.6,5-1.4,6.3-1
		c0.6,0.2,0.9,0.3,1,0.4c0,0,0,0,0,0c0.3-3.7,6.8-2.6,6.8-2.6l-4.9-1.6C103.4,30.1,110,28.7,110,28.7z"/>
	<path class="st3" d="M5,119.6v-6c0-0.4,0.3-0.7,0.7-0.7s0.7,0.3,0.7,0.7v6c0,0.1,0,0.2-0.1,0.3h3.5c-0.1-0.1-0.1-0.2-0.1-0.3v-6
		c0-0.4,0.3-0.7,0.7-0.7c0.4,0,0.7,0.3,0.7,0.7v6c0,0.1,0,0.2-0.1,0.3h3.5c-0.1-0.1-0.1-0.2-0.1-0.3v-6c0-0.4,0.3-0.7,0.7-0.7
		c0.4,0,0.7,0.3,0.7,0.7v6c0,0.1,0,0.2-0.1,0.3h3.5c-0.1-0.1-0.1-0.2-0.1-0.3v-6c0-0.4,0.3-0.7,0.7-0.7s0.7,0.3,0.7,0.7v6
		c0,0.1,0,0.2-0.1,0.3h5.1c0-7-5.7-12.7-12.7-12.7c-7,0-12.7,5.7-12.7,12.7h5.1C5,119.9,5,119.7,5,119.6z"/>
	<path class="st10" d="M6.4,113.6c0-0.4-0.3-0.7-0.7-0.7S5,113.2,5,113.6v6c0,0.1,0,0.2,0.1,0.3h1.2c0.1-0.1,0.1-0.2,0.1-0.3V113.6z
		"/>
	<path class="st10" d="M11.1,113.6c0-0.4-0.3-0.7-0.7-0.7c-0.4,0-0.7,0.3-0.7,0.7v6c0,0.1,0,0.2,0.1,0.3H11c0.1-0.1,0.1-0.2,0.1-0.3
		V113.6z"/>
	<path class="st10" d="M15.8,113.6c0-0.4-0.3-0.7-0.7-0.7c-0.4,0-0.7,0.3-0.7,0.7v6c0,0.1,0,0.2,0.1,0.3h1.2
		c0.1-0.1,0.1-0.2,0.1-0.3V113.6z"/>
	<path class="st10" d="M20.5,113.6c0-0.4-0.3-0.7-0.7-0.7s-0.7,0.3-0.7,0.7v6c0,0.1,0,0.2,0.1,0.3h1.2c0.1-0.1,0.1-0.2,0.1-0.3
		V113.6z"/>
	<path class="st3" d="M139.4,119.6v-6c0-0.4,0.3-0.7,0.7-0.7s0.7,0.3,0.7,0.7v6c0,0.1,0,0.2-0.1,0.3h3.5c-0.1-0.1-0.1-0.2-0.1-0.3
		v-6c0-0.4,0.3-0.7,0.7-0.7c0.4,0,0.7,0.3,0.7,0.7v6c0,0.1,0,0.2-0.1,0.3h3.5c-0.1-0.1-0.1-0.2-0.1-0.3v-6c0-0.4,0.3-0.7,0.7-0.7
		s0.7,0.3,0.7,0.7v6c0,0.1,0,0.2-0.1,0.3h3.5c-0.1-0.1-0.1-0.2-0.1-0.3v-6c0-0.4,0.3-0.7,0.7-0.7c0.4,0,0.7,0.3,0.7,0.7v6
		c0,0.1,0,0.2-0.1,0.3h5.1c0-7-5.7-12.7-12.7-12.7c-7,0-12.7,5.7-12.7,12.7h5.1C139.5,119.9,139.4,119.7,139.4,119.6z"/>
	<path class="st10" d="M140.8,113.6c0-0.4-0.3-0.7-0.7-0.7s-0.7,0.3-0.7,0.7v6c0,0.1,0,0.2,0.1,0.3h1.2c0.1-0.1,0.1-0.2,0.1-0.3
		V113.6z"/>
	<path class="st10" d="M145.5,113.6c0-0.4-0.3-0.7-0.7-0.7c-0.4,0-0.7,0.3-0.7,0.7v6c0,0.1,0,0.2,0.1,0.3h1.2
		c0.1-0.1,0.1-0.2,0.1-0.3V113.6z"/>
	<path class="st10" d="M150.2,113.6c0-0.4-0.3-0.7-0.7-0.7s-0.7,0.3-0.7,0.7v6c0,0.1,0,0.2,0.1,0.3h1.2c0.1-0.1,0.1-0.2,0.1-0.3
		V113.6z"/>
	<path class="st10" d="M154.9,113.6c0-0.4-0.3-0.7-0.7-0.7c-0.4,0-0.7,0.3-0.7,0.7v6c0,0.1,0,0.2,0.1,0.3h1.2
		c0.1-0.1,0.1-0.2,0.1-0.3V113.6z"/>
</g>
</svg>
