<?xml version="1.0" encoding="utf-8"?>
<!-- Generator: Adobe Illustrator 23.1.0, SVG Export Plug-In . SVG Version: 6.00 Build 0)  -->
<svg version="1.1" id="Vrstva_1" xmlns="http://www.w3.org/2000/svg" xmlns:xlink="http://www.w3.org/1999/xlink" x="0px" y="0px"
	 width="392px" height="99px" viewBox="0 0 392 99" style="enable-background:new 0 0 392 99;" xml:space="preserve">
<style type="text/css">
	.st0{fill:#FFFFFF;}
	.st1{fill:#231F20;}
	.st2{fill:#676868;}
	.st3{fill:#098FB6;}
</style>
<g id="Rounded_Rectangle_1_copy_2">
	<g>
		<path class="st0" d="M382,0H10C4.5,0,0,4.5,0,10v79c0,5.5,4.5,10,10,10h372c5.5,0,10-4.5,10-10V10C392,4.5,387.5,0,382,0z"/>
	</g>
</g>
<g>
	<g>
		<path class="st1" d="M100.7,57.1c2,1,5.1,2,8.2,2c3.4,0,5.2-1.4,5.2-3.6c0-2-1.6-3.2-5.5-4.6c-5.5-1.9-9-4.9-9-9.7
			c0-5.6,4.7-9.9,12.4-9.9c3.7,0,6.4,0.8,8.4,1.7l-1.7,6c-1.3-0.6-3.7-1.6-6.9-1.6c-3.2,0-4.8,1.5-4.8,3.2c0,2.1,1.9,3,6.1,4.6
			c5.8,2.1,8.5,5.2,8.5,9.8c0,5.5-4.2,10.2-13.2,10.2c-3.7,0-7.4-1-9.3-2L100.7,57.1z"/>
		<path class="st1" d="M126.5,48.5c0-3-0.1-5.5-0.2-7.6h6.2l0.3,3.2h0.1c1-1.5,3.1-3.7,7.2-3.7c3.1,0,5.5,1.6,6.5,4h0.1
			c0.9-1.2,1.9-2.2,3.1-2.9c1.3-0.8,2.8-1.2,4.5-1.2c4.6,0,8,3.2,8,10.3v14h-7.2v-13c0-3.5-1.1-5.5-3.5-5.5c-1.7,0-2.9,1.2-3.4,2.6
			c-0.2,0.5-0.3,1.3-0.3,1.9v13.9h-7.2V51.4c0-3-1.1-5.1-3.4-5.1c-1.9,0-3,1.5-3.5,2.7c-0.2,0.6-0.3,1.3-0.3,1.9v13.9h-7.2V48.5z"/>
		<path class="st1" d="M181.9,64.7l-0.4-2.4h-0.1c-1.6,1.9-4,2.9-6.8,2.9c-4.8,0-7.7-3.5-7.7-7.3c0-6.2,5.6-9.2,14-9.1v-0.3
			c0-1.3-0.7-3.1-4.3-3.1c-2.4,0-5,0.8-6.6,1.8l-1.4-4.8c1.7-0.9,4.9-2.1,9.3-2.1c7.9,0,10.5,4.7,10.5,10.3v8.3
			c0,2.3,0.1,4.5,0.3,5.8H181.9z M181.1,53.5c-3.9,0-6.9,0.9-6.9,3.7c0,1.9,1.3,2.8,2.9,2.8c1.9,0,3.4-1.2,3.8-2.7
			c0.1-0.4,0.1-0.8,0.1-1.3V53.5z"/>
		<path class="st1" d="M194.1,48.7c0-3.5-0.1-5.8-0.2-7.8h6.4l0.2,4.4h0.2c1.2-3.5,4.1-4.9,6.4-4.9c0.7,0,1,0,1.6,0.1v7
			c-0.5-0.1-1.2-0.2-2-0.2c-2.7,0-4.6,1.5-5.1,3.7c-0.1,0.5-0.1,1.1-0.1,1.7v12.1h-7.4V48.7z"/>
		<path class="st1" d="M221.9,34.1v6.8h5.3v5.5h-5.3V55c0,2.9,0.7,4.2,2.9,4.2c0.9,0,1.7-0.1,2.2-0.2l0,5.6c-1,0.4-2.7,0.6-4.8,0.6
			c-2.4,0-4.4-0.8-5.6-2c-1.4-1.4-2-3.7-2-7.1v-9.7h-3.2v-5.5h3.2v-5.2L221.9,34.1z"/>
		<path class="st2" d="M259.9,50.3c-0.2-4.6-0.5-10.1-0.5-14.2h-0.1c-1.1,3.8-2.5,7.9-4.1,12.5l-5.8,15.9h-3.2l-5.3-15.6
			c-1.6-4.6-2.9-8.9-3.8-12.8h-0.1c-0.1,4.1-0.3,9.6-0.6,14.5l-0.9,14.1h-4l2.3-32.8h5.4l5.6,15.9c1.4,4,2.5,7.6,3.3,11.1h0.1
			c0.8-3.3,2-6.9,3.5-11.1l5.8-15.9h5.4l2,32.8h-4.1L259.9,50.3z"/>
		<path class="st2" d="M276.6,34.5c0,1.5-1,2.6-2.7,2.6c-1.5,0-2.6-1.2-2.6-2.6c0-1.5,1.1-2.7,2.7-2.7
			C275.6,31.8,276.6,33,276.6,34.5z M271.8,64.7V41.1h4.3v23.6H271.8z"/>
		<path class="st2" d="M285.2,41.1l3.4,5.1c0.9,1.3,1.6,2.5,2.4,3.8h0.1c0.8-1.4,1.6-2.6,2.3-3.9l3.3-5h4.6l-8,11.4l8.3,12.2h-4.9
			l-3.5-5.3c-0.9-1.4-1.7-2.7-2.5-4.1h-0.1c-0.8,1.4-1.6,2.7-2.5,4.1l-3.4,5.3H280l8.4-12l-8-11.5H285.2z"/>
		<path class="st2" d="M304.6,60.8c0-2.6,1.8-4.5,4.4-4.5c2.6,0,4.3,1.9,4.3,4.5c0,2.6-1.8,4.5-4.4,4.5
			C306.4,65.2,304.6,63.3,304.6,60.8z"/>
		<path class="st2" d="M335.2,63.8c-1.1,0.6-3.6,1.4-6.8,1.4c-7.1,0-11.7-4.8-11.7-12c0-7.3,5-12.5,12.7-12.5c2.5,0,4.8,0.6,5.9,1.2
			l-1,3.3c-1-0.6-2.6-1.1-5-1.1c-5.4,0-8.3,4-8.3,8.9c0,5.5,3.5,8.8,8.2,8.8c2.4,0,4-0.6,5.3-1.2L335.2,63.8z"/>
		<path class="st2" d="M337.5,62.2l10.7-13.9c1-1.3,2-2.4,3.1-3.7v-0.1h-12.8v-3.5h18l0,2.7l-10.5,13.7c-1,1.3-1.9,2.5-3,3.7v0.1
			h13.8v3.4h-19.1V62.2z"/>
	</g>
	<g>
		<path class="st3" d="M62,71c-3,0-5.4,2.4-5.4,5.4c0,3,2.4,5.4,5.4,5.4c3,0,5.4-2.4,5.4-5.4C67.4,73.4,65,71,62,71z"/>
		<path class="st2" d="M62,68.3c3,0,5.4-2.4,5.4-5.4c0-3-2.4-5.4-5.4-5.4c-3,0-5.4,2.4-5.4,5.4C56.6,65.9,59.1,68.3,62,68.3z"/>
		<path class="st3" d="M56.6,49.5c0,3,2.4,5.4,5.4,5.4c3,0,5.4-2.4,5.4-5.4c0-3-2.4-5.4-5.4-5.4C59.1,44.1,56.6,46.5,56.6,49.5z"/>
		<path class="st2" d="M62,30.7c-3,0-5.4,2.4-5.4,5.4c0,3,2.4,5.4,5.4,5.4c3,0,5.4-2.4,5.4-5.4C67.4,33.1,65,30.7,62,30.7z"/>
		<path class="st3" d="M62,28c3,0,5.4-2.4,5.4-5.4c0-3-2.4-5.4-5.4-5.4c-3,0-5.4,2.4-5.4,5.4C56.6,25.6,59.1,28,62,28z"/>
		<path class="st3" d="M51,65.4c-3,0-5.4,2.4-5.4,5.4c0,3,2.4,5.4,5.4,5.4c3,0,5.4-2.4,5.4-5.4C56.3,67.8,53.9,65.4,51,65.4z"/>
		<path class="st2" d="M51,62.8c3,0,5.4-2.4,5.4-5.4c0-3-2.4-5.4-5.4-5.4c-3,0-5.4,2.4-5.4,5.4C45.6,60.3,48,62.8,51,62.8z"/>
		<path class="st3" d="M51,38.6c-3,0-5.4,2.4-5.4,5.4c0,3,2.4,5.4,5.4,5.4c3,0,5.4-2.4,5.4-5.4C56.3,41,53.9,38.6,51,38.6z"/>
		<path class="st3" d="M51,35.9c3,0,5.4-2.4,5.4-5.4c0-3-2.4-5.4-5.4-5.4c-3,0-5.4,2.4-5.4,5.4C45.6,33.5,48,35.9,51,35.9z"/>
		<path class="st2" d="M39.9,57.5c-3,0-5.4,2.4-5.4,5.4c0,3,2.4,5.4,5.4,5.4c3,0,5.4-2.4,5.4-5.4C45.3,59.9,42.9,57.5,39.9,57.5z"/>
		<path class="st2" d="M39.9,54.9c3,0,5.4-2.4,5.4-5.4c0-3-2.4-5.4-5.4-5.4c-3,0-5.4,2.4-5.4,5.4C34.5,52.5,36.9,54.9,39.9,54.9z"/>
		<path class="st2" d="M39.9,41.5c3,0,5.4-2.4,5.4-5.4c0-3-2.4-5.4-5.4-5.4c-3,0-5.4,2.4-5.4,5.4C34.5,39,36.9,41.5,39.9,41.5z"/>
		<path class="st2" d="M84.2,57.5c-3,0-5.4,2.4-5.4,5.4c0,3,2.4,5.4,5.4,5.4c3,0,5.4-2.4,5.4-5.4C89.5,59.9,87.1,57.5,84.2,57.5z"/>
		<path class="st2" d="M84.2,44.1c-3,0-5.4,2.4-5.4,5.4c0,3,2.4,5.4,5.4,5.4c3,0,5.4-2.4,5.4-5.4C89.5,46.5,87.1,44.1,84.2,44.1z"/>
		<path class="st2" d="M84.2,41.5c3,0,5.4-2.4,5.4-5.4c0-3-2.4-5.4-5.4-5.4c-3,0-5.4,2.4-5.4,5.4C78.8,39,81.2,41.5,84.2,41.5z"/>
		<path class="st3" d="M73.1,65.4c-3,0-5.4,2.4-5.4,5.4c0,3,2.4,5.4,5.4,5.4c3,0,5.4-2.4,5.4-5.4C78.5,67.8,76.1,65.4,73.1,65.4z"/>
		<path class="st3" d="M73.1,62.8c3,0,5.4-2.4,5.4-5.4c0-3-2.4-5.4-5.4-5.4c-3,0-5.4,2.4-5.4,5.4C67.7,60.3,70.1,62.8,73.1,62.8z"/>
		<path class="st2" d="M73.1,38.6c-3,0-5.4,2.4-5.4,5.4c0,3,2.4,5.4,5.4,5.4c3,0,5.4-2.4,5.4-5.4C78.5,41,76.1,38.6,73.1,38.6z"/>
		<path class="st3" d="M73.1,35.9c3,0,5.4-2.4,5.4-5.4c0-3-2.4-5.4-5.4-5.4c-3,0-5.4,2.4-5.4,5.4C67.7,33.5,70.1,35.9,73.1,35.9z"/>
	</g>
</g>
</svg>
