<?xml version="1.0" encoding="utf-8"?>
<!-- Generator: Adobe Illustrator 23.1.0, SVG Export Plug-In . SVG Version: 6.00 Build 0)  -->
<svg version="1.1" id="Vrstva_1" xmlns="http://www.w3.org/2000/svg" xmlns:xlink="http://www.w3.org/1999/xlink" x="0px" y="0px"
	 width="392px" height="99.3px" viewBox="0 0 392 99.3" style="enable-background:new 0 0 392 99.3;" xml:space="preserve">
<style type="text/css">
	.st0{fill:#FFFFFF;}
	.st1{fill:#646F87;}
	.st2{fill:#CB68A7;}
</style>
<g id="Rounded_Rectangle_1_copy_2">
	<g>
		<path class="st0" d="M382,0.3H10c-5.5,0-10,4.5-10,10v79c0,5.5,4.5,10,10,10h372c5.5,0,10-4.5,10-10v-79
			C392,4.8,387.5,0.3,382,0.3z"/>
	</g>
</g>
<g>
	<g>
		<path class="st1" d="M121.8,67.7c0,1.6-1.1,3-2.6,3.5c-2.9,1-6.2,1.5-9.5,1.5c-3.6,0-6.4-0.9-8.4-2.5c-2-1.6-3.1-4-3.1-6.8
			c0-2.8,1.1-4.9,3.1-6.5c2-1.6,4.8-2.5,8.4-2.5h6.1v-2c0-2.4-1.8-4.3-4.9-4.3c-2.8,0-4.3,0.3-6.3,1.5c-0.5,0.3-1.1,0.5-1.6,0.5
			c-1.6,0-2.9-1.1-2.9-2.6c0-1,0.5-2,1.5-2.6c3.2-1.8,5.9-2.3,10.2-2.3c6.6,0,10.2,4.6,10.2,9.7V67.7z M115.8,59.8h-6.1
			c-5.1,0-5.4,2.7-5.4,3.6c0,1,0.3,3.9,5.4,3.9c2,0,4.2-0.3,6.1-0.7V59.8z"/>
		<path class="st1" d="M125.5,47.7c0-1.6,1.1-3,2.6-3.5c2.9-0.9,6-1.5,9.2-1.5c3.5,0,6.4,1.1,8.5,3.2c2.1,2,3.3,4.9,3.3,8.2v7.2
			c0,3.4-1.1,6.3-3.2,8.3c-2.1,2.1-4.7,3.1-8.2,3.1c-1.9,0-4.3-0.7-6.1-1.5v10.6c0,1.6-1.4,3-3,3c-1.7,0-3.1-1.3-3.1-3V47.7z
			 M143,53.6c0-3.5-2.1-5.5-5.8-5.5c-1.9,0-3.8,0.2-5.7,0.7v16.5c1.6,1.3,3.6,2,5.7,2c3.6,0,5.8-2,5.8-5.5V53.6z"/>
		<path class="st1" d="M152.2,47.7c0-1.6,1.1-3,2.6-3.5c2.9-0.9,6-1.5,9.2-1.5c3.5,0,6.4,1.1,8.5,3.2c2.1,2,3.3,4.9,3.3,8.2v7.2
			c0,3.4-1.1,6.3-3.2,8.3c-2.1,2.1-4.7,3.1-8.2,3.1c-1.9,0-4.3-0.7-6.1-1.5v10.6c0,1.6-1.4,3-3,3c-1.7,0-3.1-1.3-3.1-3V47.7z
			 M169.7,53.6c0-3.5-2.1-5.5-5.8-5.5c-1.9,0-3.8,0.2-5.7,0.7v16.5c1.6,1.3,3.6,2,5.7,2c3.6,0,5.8-2,5.8-5.5V53.6z"/>
		<path class="st1" d="M179.1,34.7c0-1.6,1.4-3,3.1-3c1.6,0,3,1.3,3,3v35c0,1.6-1.4,3-3,3c-1.7,0-3.1-1.3-3.1-3V34.7z"/>
		<path class="st1" d="M195.5,60.5c0,2.3,0.4,3.9,1.2,4.9c1,1.2,2.5,1.9,4.5,1.9c2.2,0,4.3-0.6,6.3-1.5c0.4-0.2,0.8-0.3,1.2-0.3
			c1.5,0,2.9,1.2,2.9,2.7c0,1.1-0.5,2-1.5,2.6c-2.8,1.3-5.8,1.9-8.9,1.9c-3.4,0-6.3-1.1-8.5-3.2c-2.1-2-3.2-4.9-3.2-8.2v-7.2
			c0-3.3,1.1-6.1,3.2-8.2c2.2-2.1,5.1-3.2,8.5-3.2c3.5,0,6.4,1.1,8.5,3.2c2.1,2,3.3,4.9,3.3,8.2v2.7c0,2-1.7,3.7-3.8,3.7H195.5z
			 M207,55.1c0-4.7-2-6.9-5.8-6.9c-3.7,0-5.7,2.2-5.7,6.9H207z"/>
		<path class="st2" d="M249.4,53c0-2.7-2.3-4.9-5.1-4.9c-1.8,0-3.6,0.6-5.1,1.5v20.1c0,1.6-1.4,3-3.1,3c-1.6,0-3-1.3-3-3V52.3
			c0-3.3-2.2-4.1-4.8-4.1c-2.1,0-3.4,0.3-5.3,0.8v20.8c0,1.6-1.4,3-3,3c-1.7,0-3.1-1.3-3.1-3V47.8c0-1.5,1-2.9,2.5-3.5
			c3.1-1.1,6.1-1.6,9.5-1.6c2.8,0,5.3,0.9,7.1,2.3c2.4-1.5,5.3-2.3,8.2-2.3c6.3,0,11.1,4.6,11.1,10.7v16.2c0,1.6-1.4,3-3.1,3
			c-1.7,0-3-1.3-3-3V53z"/>
		<path class="st2" d="M263.6,38.3c-1.9,0-3.4-1.5-3.4-3.3c0-1.8,1.5-3.3,3.4-3.3c1.9,0,3.4,1.5,3.4,3.3
			C267.1,36.8,265.5,38.3,263.6,38.3z M260.6,45.7c0-1.6,1.4-3,3.1-3c1.7,0,3,1.3,3,3v24c0,1.6-1.3,3-3,3c-1.6,0-3.1-1.3-3.1-3V45.7
			z"/>
		<path class="st2" d="M283.9,62.6l-6.2,8.9c-0.6,0.8-1.5,1.2-2.5,1.2c-1.6,0-3.1-1.3-3.1-3c0-0.6,0.2-1.1,0.5-1.6l7.7-10.5
			l-7.5-10.2c-0.4-0.5-0.5-1.1-0.5-1.6c0-1.5,1.4-3,3.1-3c0.9,0,1.9,0.5,2.5,1.2l6.1,8.6l6.1-8.6c0.6-0.9,1.6-1.2,2.5-1.2
			c1.6,0,3,1.3,3,3c0,0.6-0.2,1.1-0.5,1.6l-7.5,10.2l7.7,10.5c0.4,0.5,0.6,1.1,0.6,1.6c0,1.6-1.4,3-3.1,3c-0.9,0-1.9-0.4-2.5-1.2
			L283.9,62.6z"/>
		<path class="st2" d="M299.1,68.9c0-2,1.7-3.6,3.8-3.6c2.1,0,3.8,1.6,3.8,3.6c0,2-1.7,3.7-3.8,3.7
			C300.8,72.5,299.1,70.9,299.1,68.9z"/>
		<path class="st2" d="M309.1,54.1c0-3.3,1.1-6.1,3.2-8.2c2.2-2.1,5.1-3.2,8.5-3.2c2.9,0,5.6,0.6,8.2,1.8c1.1,0.5,1.7,1.5,1.7,2.6
			c0,1.4-1.2,2.7-2.9,2.7c-0.5,0-1-0.2-1.4-0.3c-1.7-0.7-3.6-1.4-5.6-1.4c-3.6,0-5.7,2-5.7,5.5v8.1c0,3.5,2.1,5.5,5.7,5.5
			c1.9,0,4.1-0.6,5.8-1.4c0.4-0.2,0.8-0.3,1.3-0.3c1.5,0,2.8,1.1,2.8,2.7c0,1.1-0.6,2.1-1.8,2.6c-2.5,1.2-5.2,1.8-8.1,1.8
			c-3.4,0-6.3-1.1-8.5-3.2c-2.1-2-3.2-4.9-3.2-8.2V54.1z"/>
		<path class="st2" d="M337.3,72.1c-1.9,0-3.4-1.5-3.4-3.3c0-0.7,0.2-1.3,0.7-2l14.5-17.9h-12c-1.7,0-3-1.2-3-2.8
			c0-1.6,1.3-2.8,3-2.8h16.7c1.9,0,3.4,1.5,3.4,3.3c0,0.7-0.2,1.4-0.6,1.9l-14.6,18.1h12.3c1.7,0,3.1,1.1,3.1,2.7
			c0,1.6-1.3,2.8-3,2.8H337.3z"/>
	</g>
	<path class="st1" d="M53.6,19c0-2.3-1.8-4.1-4.1-4.1c-2.3,0-4.1,1.8-4.1,4.1c0,2.3,1.8,4.1,4.1,4.1C51.7,23.1,53.6,21.3,53.6,19z"
		/>
	<path class="st2" d="M64.4,19c0-2.3-1.8-4.1-4.1-4.1c-2.3,0-4.1,1.8-4.1,4.1c0,2.3,1.8,4.1,4.1,4.1C62.6,23.1,64.4,21.3,64.4,19z"
		/>
	<path class="st1" d="M75.3,19c0-2.3-1.8-4.1-4.1-4.1c-2.3,0-4.1,1.8-4.1,4.1c0,2.3,1.8,4.1,4.1,4.1C73.5,23.1,75.3,21.3,75.3,19z"
		/>
	<path class="st2" d="M48.1,27.7c0-2.3-1.8-4.1-4.1-4.1c-2.3,0-4.1,1.8-4.1,4.1c0,2.3,1.8,4.1,4.1,4.1
		C46.3,31.8,48.1,29.9,48.1,27.7z"/>
	<path class="st1" d="M59,27.7c0-2.3-1.8-4.1-4.1-4.1c-2.3,0-4.1,1.8-4.1,4.1c0,2.3,1.8,4.1,4.1,4.1C57.2,31.8,59,29.9,59,27.7z"/>
	<path class="st1" d="M69.9,27.7c0-2.3-1.8-4.1-4.1-4.1c-2.3,0-4.1,1.8-4.1,4.1c0,2.3,1.8,4.1,4.1,4.1C68,31.8,69.9,29.9,69.9,27.7z
		"/>
	<path class="st2" d="M80.7,27.7c0-2.3-1.8-4.1-4.1-4.1c-2.3,0-4.1,1.8-4.1,4.1c0,2.3,1.8,4.1,4.1,4.1
		C78.9,31.8,80.7,29.9,80.7,27.7z"/>
	<path class="st1" d="M42.7,36.3c0-2.3-1.8-4.1-4.1-4.1c-2.3,0-4.1,1.8-4.1,4.1c0,2.3,1.8,4.1,4.1,4.1
		C40.9,40.4,42.7,38.6,42.7,36.3z"/>
	<path class="st1" d="M53.6,36.3c0-2.3-1.8-4.1-4.1-4.1c-2.3,0-4.1,1.8-4.1,4.1c0,2.3,1.8,4.1,4.1,4.1
		C51.7,40.4,53.6,38.6,53.6,36.3z"/>
	<path class="st2" d="M64.4,36.3c0-2.3-1.8-4.1-4.1-4.1c-2.3,0-4.1,1.8-4.1,4.1c0,2.3,1.8,4.1,4.1,4.1
		C62.6,40.4,64.4,38.6,64.4,36.3z"/>
	<path class="st1" d="M75.3,36.3c0-2.3-1.8-4.1-4.1-4.1c-2.3,0-4.1,1.8-4.1,4.1c0,2.3,1.8,4.1,4.1,4.1
		C73.5,40.4,75.3,38.6,75.3,36.3z"/>
	<path class="st1" d="M86.2,36.3c0-2.3-1.8-4.1-4.1-4.1c-2.3,0-4.1,1.8-4.1,4.1c0,2.3,1.8,4.1,4.1,4.1
		C84.3,40.4,86.2,38.6,86.2,36.3z"/>
	<path class="st2" d="M48.1,44.9c0-2.3-1.8-4.1-4.1-4.1c-2.3,0-4.1,1.8-4.1,4.1c0,2.3,1.8,4.1,4.1,4.1C46.3,49,48.1,47.2,48.1,44.9z
		"/>
	<path class="st1" d="M59,44.9c0-2.3-1.8-4.1-4.1-4.1c-2.3,0-4.1,1.8-4.1,4.1c0,2.3,1.8,4.1,4.1,4.1C57.2,49,59,47.2,59,44.9z"/>
	<path class="st1" d="M69.9,44.9c0-2.3-1.8-4.1-4.1-4.1c-2.3,0-4.1,1.8-4.1,4.1c0,2.3,1.8,4.1,4.1,4.1C68,49,69.9,47.2,69.9,44.9z"
		/>
	<path class="st2" d="M84.8,68c0-2.3-1.8-4.1-4.1-4.1c-2.3,0-4.1,1.8-4.1,4.1c0,2.3,1.8,4.1,4.1,4.1C83,72.1,84.8,70.3,84.8,68z"/>
	<path class="st2" d="M64.4,53.6c0-2.3-1.8-4.1-4.1-4.1c-2.3,0-4.1,1.8-4.1,4.1c0,2.3,1.8,4.1,4.1,4.1
		C62.6,57.7,64.4,55.8,64.4,53.6z"/>
	<path class="st1" d="M53.6,53.6c0-2.3-1.8-4.1-4.1-4.1c-2.3,0-4.1,1.8-4.1,4.1c0,2.3,1.8,4.1,4.1,4.1
		C51.7,57.7,53.6,55.8,53.6,53.6z"/>
	<path class="st1" d="M75.3,53.6c0-2.3-1.8-4.1-4.1-4.1c-2.3,0-4.1,1.8-4.1,4.1c0,2.3,1.8,4.1,4.1,4.1
		C73.5,57.7,75.3,55.8,75.3,53.6z"/>
	<path class="st1" d="M68.3,66v-6.4c-1.1-0.6-2-1.5-2.6-2.7c-1,2-3,3.4-5.4,3.4c-2.4,0-4.5-1.4-5.4-3.4c-0.7,1.5-2,2.6-3.5,3.1v6
		c0,2.3-2,4.1-4,4.1v2h25v-2C70.3,70.1,68.3,68.2,68.3,66z"/>
</g>
</svg>
