<?xml version="1.0" encoding="utf-8"?>
<!-- Generator: Adobe Illustrator 23.1.0, SVG Export Plug-In . SVG Version: 6.00 Build 0)  -->
<svg version="1.1" id="Vrstva_1" xmlns="http://www.w3.org/2000/svg" xmlns:xlink="http://www.w3.org/1999/xlink" x="0px" y="0px"
	 width="323px" height="70.5px" viewBox="0 0 323 70.5" style="enable-background:new 0 0 323 70.5;" xml:space="preserve">
<style type="text/css">
	.st0{fill:#646F87;}
	.st1{fill:#CB68A7;}
</style>
<g>
	<g>
		<path class="st0" d="M87.3,52.8c0,1.6-1.1,3-2.6,3.5c-2.9,1-6.2,1.5-9.5,1.5c-3.6,0-6.4-0.9-8.4-2.5c-2-1.6-3.1-4-3.1-6.8
			c0-2.8,1.1-4.9,3.1-6.5c2-1.6,4.8-2.5,8.4-2.5h6.1v-2c0-2.4-1.8-4.3-4.9-4.3c-2.8,0-4.3,0.3-6.3,1.5c-0.5,0.3-1.1,0.5-1.6,0.5
			c-1.6,0-2.9-1.1-2.9-2.6c0-1,0.5-2,1.5-2.6c3.2-1.8,5.9-2.3,10.2-2.3c6.6,0,10.2,4.6,10.2,9.7V52.8z M81.3,44.8h-6.1
			c-5.1,0-5.4,2.7-5.4,3.6c0,1,0.3,3.9,5.4,3.9c2,0,4.2-0.3,6.1-0.7V44.8z"/>
		<path class="st0" d="M91,32.7c0-1.6,1.1-3,2.6-3.5c2.9-0.9,6-1.5,9.2-1.5c3.5,0,6.4,1.1,8.5,3.2c2.1,2,3.3,4.9,3.3,8.2v7.2
			c0,3.4-1.1,6.3-3.2,8.3c-2.1,2.1-4.7,3.1-8.2,3.1c-1.9,0-4.3-0.7-6.1-1.5v10.6c0,1.6-1.4,3-3,3c-1.7,0-3.1-1.3-3.1-3V32.7z
			 M108.5,38.7c0-3.5-2.1-5.5-5.8-5.5c-1.9,0-3.8,0.2-5.7,0.7v16.5c1.6,1.3,3.6,2,5.7,2c3.6,0,5.8-2,5.8-5.5V38.7z"/>
		<path class="st0" d="M117.7,32.7c0-1.6,1.1-3,2.6-3.5c2.9-0.9,6-1.5,9.2-1.5c3.5,0,6.4,1.1,8.5,3.2c2.1,2,3.3,4.9,3.3,8.2v7.2
			c0,3.4-1.1,6.3-3.2,8.3c-2.1,2.1-4.7,3.1-8.2,3.1c-1.9,0-4.3-0.7-6.1-1.5v10.6c0,1.6-1.4,3-3,3c-1.7,0-3.1-1.3-3.1-3V32.7z
			 M135.2,38.7c0-3.5-2.1-5.5-5.8-5.5c-1.9,0-3.8,0.2-5.7,0.7v16.5c1.6,1.3,3.6,2,5.7,2c3.6,0,5.8-2,5.8-5.5V38.7z"/>
		<path class="st0" d="M144.6,19.7c0-1.6,1.4-3,3.1-3c1.6,0,3,1.3,3,3v35c0,1.6-1.4,3-3,3c-1.7,0-3.1-1.3-3.1-3V19.7z"/>
		<path class="st0" d="M161,45.5c0,2.3,0.4,3.9,1.2,4.9c1,1.2,2.5,1.9,4.5,1.9c2.2,0,4.3-0.6,6.3-1.5c0.4-0.2,0.8-0.3,1.2-0.3
			c1.5,0,2.9,1.2,2.9,2.7c0,1.1-0.5,2-1.5,2.6c-2.8,1.3-5.8,1.9-8.9,1.9c-3.4,0-6.3-1.1-8.5-3.2c-2.1-2-3.2-4.9-3.2-8.2v-7.2
			c0-3.3,1.1-6.1,3.2-8.2c2.2-2.1,5.1-3.2,8.5-3.2c3.5,0,6.4,1.1,8.5,3.2c2.1,2,3.3,4.9,3.3,8.2v2.7c0,2-1.7,3.7-3.8,3.7H161z
			 M172.5,40.1c0-4.7-2-6.9-5.8-6.9c-3.7,0-5.7,2.2-5.7,6.9H172.5z"/>
		<path class="st1" d="M214.9,38.1c0-2.7-2.3-4.9-5.1-4.9c-1.8,0-3.6,0.6-5.1,1.5v20.1c0,1.6-1.4,3-3.1,3c-1.6,0-3-1.3-3-3V37.3
			c0-3.3-2.2-4.1-4.8-4.1c-2.1,0-3.4,0.3-5.3,0.8v20.8c0,1.6-1.4,3-3,3c-1.7,0-3.1-1.3-3.1-3V32.9c0-1.5,1-2.9,2.5-3.5
			c3.1-1.1,6.1-1.6,9.5-1.6c2.8,0,5.3,0.9,7.1,2.3c2.4-1.5,5.3-2.3,8.2-2.3c6.3,0,11.1,4.6,11.1,10.7v16.2c0,1.6-1.4,3-3.1,3
			c-1.7,0-3-1.3-3-3V38.1z"/>
		<path class="st1" d="M229.1,23.4c-1.9,0-3.4-1.5-3.4-3.3c0-1.8,1.5-3.3,3.4-3.3c1.9,0,3.4,1.5,3.4,3.3
			C232.6,21.9,231,23.4,229.1,23.4z M226.1,30.8c0-1.6,1.4-3,3.1-3c1.7,0,3,1.3,3,3v24c0,1.6-1.3,3-3,3c-1.6,0-3.1-1.3-3.1-3V30.8z"
			/>
		<path class="st1" d="M249.4,47.6l-6.2,8.9c-0.6,0.8-1.5,1.2-2.5,1.2c-1.6,0-3.1-1.3-3.1-3c0-0.6,0.2-1.1,0.5-1.6l7.7-10.5
			l-7.5-10.2c-0.4-0.5-0.5-1.1-0.5-1.6c0-1.5,1.4-3,3.1-3c0.9,0,1.9,0.5,2.5,1.2l6.1,8.6l6.1-8.6c0.6-0.9,1.6-1.2,2.5-1.2
			c1.6,0,3,1.3,3,3c0,0.6-0.2,1.1-0.5,1.6l-7.5,10.2l7.7,10.5c0.4,0.5,0.6,1.1,0.6,1.6c0,1.6-1.4,3-3.1,3c-0.9,0-1.9-0.4-2.5-1.2
			L249.4,47.6z"/>
		<path class="st1" d="M264.6,53.9c0-2,1.7-3.6,3.8-3.6c2.1,0,3.8,1.6,3.8,3.6c0,2-1.7,3.7-3.8,3.7C266.3,57.6,264.6,56,264.6,53.9z
			"/>
		<path class="st1" d="M274.6,39.2c0-3.3,1.1-6.1,3.2-8.2c2.2-2.1,5.1-3.2,8.5-3.2c2.9,0,5.6,0.6,8.2,1.8c1.1,0.5,1.7,1.5,1.7,2.6
			c0,1.4-1.2,2.7-2.9,2.7c-0.5,0-1-0.2-1.4-0.3c-1.7-0.7-3.6-1.4-5.6-1.4c-3.6,0-5.7,2-5.7,5.5v8.1c0,3.5,2.1,5.5,5.7,5.5
			c1.9,0,4.1-0.6,5.8-1.4c0.4-0.2,0.8-0.3,1.3-0.3c1.5,0,2.8,1.1,2.8,2.7c0,1.1-0.6,2.1-1.8,2.6c-2.5,1.2-5.2,1.8-8.1,1.8
			c-3.4,0-6.3-1.1-8.5-3.2c-2.1-2-3.2-4.9-3.2-8.2V39.2z"/>
		<path class="st1" d="M302.8,57.2c-1.9,0-3.4-1.5-3.4-3.3c0-0.7,0.2-1.3,0.7-2l14.5-17.9h-12c-1.7,0-3-1.2-3-2.8
			c0-1.6,1.3-2.8,3-2.8h16.7c1.9,0,3.4,1.5,3.4,3.3c0,0.7-0.2,1.4-0.6,1.9l-14.6,18.1h12.3c1.7,0,3.1,1.1,3.1,2.7
			c0,1.6-1.3,2.8-3,2.8H302.8z"/>
	</g>
	<path class="st0" d="M19.1,4.1C19.1,1.8,17.2,0,15,0c-2.3,0-4.1,1.8-4.1,4.1c0,2.3,1.8,4.1,4.1,4.1C17.2,8.2,19.1,6.4,19.1,4.1z"/>
	<path class="st1" d="M29.9,4.1c0-2.3-1.8-4.1-4.1-4.1c-2.3,0-4.1,1.8-4.1,4.1c0,2.3,1.8,4.1,4.1,4.1C28.1,8.2,29.9,6.4,29.9,4.1z"
		/>
	<path class="st0" d="M40.8,4.1C40.8,1.8,39,0,36.7,0c-2.3,0-4.1,1.8-4.1,4.1c0,2.3,1.8,4.1,4.1,4.1C39,8.2,40.8,6.4,40.8,4.1z"/>
	<path class="st1" d="M13.6,12.7c0-2.3-1.8-4.1-4.1-4.1c-2.3,0-4.1,1.8-4.1,4.1c0,2.3,1.8,4.1,4.1,4.1C11.8,16.8,13.6,15,13.6,12.7z
		"/>
	<path class="st0" d="M24.5,12.7c0-2.3-1.8-4.1-4.1-4.1c-2.3,0-4.1,1.8-4.1,4.1c0,2.3,1.8,4.1,4.1,4.1C22.7,16.8,24.5,15,24.5,12.7z
		"/>
	<path class="st0" d="M35.4,12.7c0-2.3-1.8-4.1-4.1-4.1c-2.3,0-4.1,1.8-4.1,4.1c0,2.3,1.8,4.1,4.1,4.1C33.5,16.8,35.4,15,35.4,12.7z
		"/>
	<path class="st1" d="M46.2,12.7c0-2.3-1.8-4.1-4.1-4.1c-2.3,0-4.1,1.8-4.1,4.1c0,2.3,1.8,4.1,4.1,4.1C44.4,16.8,46.2,15,46.2,12.7z
		"/>
	<path class="st0" d="M8.2,21.4c0-2.3-1.8-4.1-4.1-4.1c-2.3,0-4.1,1.8-4.1,4.1c0,2.3,1.8,4.1,4.1,4.1C6.4,25.5,8.2,23.6,8.2,21.4z"
		/>
	<path class="st0" d="M19.1,21.4c0-2.3-1.8-4.1-4.1-4.1c-2.3,0-4.1,1.8-4.1,4.1c0,2.3,1.8,4.1,4.1,4.1
		C17.2,25.5,19.1,23.6,19.1,21.4z"/>
	<path class="st1" d="M29.9,21.4c0-2.3-1.8-4.1-4.1-4.1c-2.3,0-4.1,1.8-4.1,4.1c0,2.3,1.8,4.1,4.1,4.1
		C28.1,25.5,29.9,23.6,29.9,21.4z"/>
	<path class="st0" d="M40.8,21.4c0-2.3-1.8-4.1-4.1-4.1c-2.3,0-4.1,1.8-4.1,4.1c0,2.3,1.8,4.1,4.1,4.1C39,25.5,40.8,23.6,40.8,21.4z
		"/>
	<path class="st0" d="M51.7,21.4c0-2.3-1.8-4.1-4.1-4.1c-2.3,0-4.1,1.8-4.1,4.1c0,2.3,1.8,4.1,4.1,4.1
		C49.8,25.5,51.7,23.6,51.7,21.4z"/>
	<path class="st1" d="M13.6,30c0-2.3-1.8-4.1-4.1-4.1c-2.3,0-4.1,1.8-4.1,4.1c0,2.3,1.8,4.1,4.1,4.1C11.8,34.1,13.6,32.3,13.6,30z"
		/>
	<path class="st0" d="M24.5,30c0-2.3-1.8-4.1-4.1-4.1c-2.3,0-4.1,1.8-4.1,4.1c0,2.3,1.8,4.1,4.1,4.1C22.7,34.1,24.5,32.3,24.5,30z"
		/>
	<path class="st0" d="M35.4,30c0-2.3-1.8-4.1-4.1-4.1c-2.3,0-4.1,1.8-4.1,4.1c0,2.3,1.8,4.1,4.1,4.1C33.5,34.1,35.4,32.3,35.4,30z"
		/>
	<path class="st1" d="M50.3,53.1c0-2.3-1.8-4.1-4.1-4.1c-2.3,0-4.1,1.8-4.1,4.1c0,2.3,1.8,4.1,4.1,4.1
		C48.5,57.2,50.3,55.3,50.3,53.1z"/>
	<path class="st1" d="M29.9,38.6c0-2.3-1.8-4.1-4.1-4.1c-2.3,0-4.1,1.8-4.1,4.1c0,2.3,1.8,4.1,4.1,4.1
		C28.1,42.7,29.9,40.9,29.9,38.6z"/>
	<path class="st0" d="M19.1,38.6c0-2.3-1.8-4.1-4.1-4.1c-2.3,0-4.1,1.8-4.1,4.1c0,2.3,1.8,4.1,4.1,4.1
		C17.2,42.7,19.1,40.9,19.1,38.6z"/>
	<path class="st0" d="M40.8,38.6c0-2.3-1.8-4.1-4.1-4.1c-2.3,0-4.1,1.8-4.1,4.1c0,2.3,1.8,4.1,4.1,4.1C39,42.7,40.8,40.9,40.8,38.6z
		"/>
	<path class="st0" d="M33.8,51v-6.4c-1.1-0.6-2-1.5-2.6-2.7c-1,2-3,3.4-5.4,3.4c-2.4,0-4.5-1.4-5.4-3.4c-0.7,1.5-2,2.6-3.5,3.1v6
		c0,2.3-2,4.1-4,4.1v2h25v-2C35.8,55.1,33.8,53.3,33.8,51z"/>
</g>
</svg>
