<?xml version="1.0" encoding="utf-8"?>
<!-- Generator: Adobe Illustrator 23.1.0, SVG Export Plug-In . SVG Version: 6.00 Build 0)  -->
<svg version="1.1" id="Vrstva_1" xmlns="http://www.w3.org/2000/svg" xmlns:xlink="http://www.w3.org/1999/xlink" x="0px" y="0px"
	 width="323px" height="70.5px" viewBox="0 0 323 70.5" style="enable-background:new 0 0 323 70.5;" xml:space="preserve">
<style type="text/css">
	.st0{fill:#231F20;}
	.st1{fill:#676768;}
	.st2{fill:#0A8EB5;}
</style>
<g>
	<g>
		<path class="st0" d="M66.6,42.5c2,1,5.1,2,8.2,2c3.4,0,5.2-1.4,5.2-3.6c0-2-1.6-3.2-5.5-4.6c-5.5-1.9-9-4.9-9-9.7
			c0-5.6,4.7-9.9,12.4-9.9c3.7,0,6.4,0.8,8.4,1.7l-1.7,6c-1.3-0.6-3.7-1.6-6.9-1.6c-3.2,0-4.8,1.5-4.8,3.2c0,2.1,1.9,3,6.1,4.6
			c5.8,2.1,8.5,5.2,8.5,9.8c0,5.5-4.2,10.2-13.2,10.2c-3.7,0-7.4-1-9.3-2L66.6,42.5z"/>
		<path class="st0" d="M92.4,33.9c0-3-0.1-5.5-0.2-7.6h6.2l0.3,3.2H99c1-1.5,3.1-3.7,7.2-3.7c3.1,0,5.5,1.6,6.5,4h0.1
			c0.9-1.2,1.9-2.2,3.1-2.9c1.3-0.8,2.8-1.2,4.5-1.2c4.6,0,8,3.2,8,10.3v14h-7.2v-13c0-3.5-1.1-5.5-3.5-5.5c-1.7,0-2.9,1.2-3.4,2.6
			c-0.2,0.5-0.3,1.3-0.3,1.9v13.9h-7.2V36.8c0-3-1.1-5.1-3.4-5.1c-1.9,0-3,1.5-3.5,2.7c-0.2,0.6-0.3,1.3-0.3,1.9v13.9h-7.2V33.9z"/>
		<path class="st0" d="M147.8,50.1l-0.4-2.4h-0.1c-1.6,1.9-4,2.9-6.8,2.9c-4.8,0-7.7-3.5-7.7-7.3c0-6.2,5.6-9.2,14-9.1v-0.3
			c0-1.3-0.7-3.1-4.3-3.1c-2.4,0-5,0.8-6.6,1.8l-1.4-4.8c1.7-0.9,4.9-2.1,9.3-2.1c7.9,0,10.5,4.7,10.5,10.3v8.3
			c0,2.3,0.1,4.5,0.3,5.8H147.8z M147,38.9c-3.9,0-6.9,0.9-6.9,3.7c0,1.9,1.3,2.8,2.9,2.8c1.9,0,3.4-1.2,3.8-2.7
			c0.1-0.4,0.1-0.8,0.1-1.3V38.9z"/>
		<path class="st0" d="M160,34.1c0-3.5-0.1-5.8-0.2-7.8h6.4l0.2,4.4h0.2c1.2-3.5,4.1-4.9,6.4-4.9c0.7,0,1,0,1.6,0.1v7
			c-0.5-0.1-1.2-0.2-2-0.2c-2.7,0-4.6,1.5-5.1,3.7c-0.1,0.5-0.1,1.1-0.1,1.7v12.1H160V34.1z"/>
		<path class="st0" d="M187.8,19.5v6.8h5.3v5.5h-5.3v8.6c0,2.9,0.7,4.2,2.9,4.2c0.9,0,1.7-0.1,2.2-0.2l0,5.6c-1,0.4-2.7,0.6-4.8,0.6
			c-2.4,0-4.4-0.8-5.6-2c-1.4-1.4-2-3.7-2-7.1v-9.7h-3.2v-5.5h3.2v-5.2L187.8,19.5z"/>
		<path class="st1" d="M225.8,35.7c-0.2-4.6-0.5-10.1-0.5-14.2h-0.1c-1.1,3.8-2.5,7.9-4.1,12.5l-5.8,15.9H212l-5.3-15.6
			c-1.6-4.6-2.9-8.9-3.8-12.8h-0.1c-0.1,4.1-0.3,9.6-0.6,14.5l-0.9,14.1h-4l2.3-32.8h5.4l5.6,15.9c1.4,4,2.5,7.6,3.3,11.1h0.1
			c0.8-3.3,2-6.9,3.5-11.1l5.8-15.9h5.4l2,32.8h-4.1L225.8,35.7z"/>
		<path class="st1" d="M242.5,19.9c0,1.5-1,2.6-2.7,2.6c-1.5,0-2.6-1.2-2.6-2.6c0-1.5,1.1-2.7,2.7-2.7
			C241.5,17.2,242.5,18.4,242.5,19.9z M237.7,50.1V26.5h4.3v23.6H237.7z"/>
		<path class="st1" d="M251.1,26.5l3.4,5.1c0.9,1.3,1.6,2.5,2.4,3.8h0.1c0.8-1.4,1.6-2.6,2.3-3.9l3.3-5h4.6l-8,11.4l8.3,12.2h-4.9
			l-3.5-5.3c-0.9-1.4-1.7-2.7-2.5-4.1h-0.1c-0.8,1.4-1.6,2.7-2.5,4.1l-3.4,5.3H246l8.4-12l-8-11.5H251.1z"/>
		<path class="st1" d="M270.5,46.2c0-2.6,1.8-4.5,4.4-4.5c2.6,0,4.3,1.9,4.3,4.5c0,2.6-1.8,4.5-4.4,4.5
			C272.3,50.6,270.5,48.7,270.5,46.2z"/>
		<path class="st1" d="M301.1,49.2c-1.1,0.6-3.6,1.4-6.8,1.4c-7.1,0-11.7-4.8-11.7-12c0-7.3,5-12.5,12.7-12.5c2.5,0,4.8,0.6,5.9,1.2
			l-1,3.3c-1-0.6-2.6-1.1-5-1.1c-5.4,0-8.3,4-8.3,8.9c0,5.5,3.5,8.8,8.2,8.8c2.4,0,4-0.6,5.3-1.2L301.1,49.2z"/>
		<path class="st1" d="M303.5,47.6l10.7-13.9c1-1.3,2-2.4,3.1-3.7V30h-12.8v-3.5h18l0,2.7l-10.5,13.7c-1,1.3-1.9,2.5-3,3.7v0.1h13.8
			v3.4h-19.1V47.6z"/>
	</g>
	<g>
		<path class="st2" d="M27.9,56.3c-3,0-5.4,2.4-5.4,5.4c0,3,2.4,5.4,5.4,5.4c3,0,5.4-2.4,5.4-5.4C33.3,58.8,30.9,56.3,27.9,56.3z"/>
		<path class="st1" d="M27.9,53.7c3,0,5.4-2.4,5.4-5.4c0-3-2.4-5.4-5.4-5.4c-3,0-5.4,2.4-5.4,5.4C22.5,51.3,25,53.7,27.9,53.7z"/>
		<path class="st2" d="M22.5,34.9c0,3,2.4,5.4,5.4,5.4c3,0,5.4-2.4,5.4-5.4c0-3-2.4-5.4-5.4-5.4C25,29.5,22.5,31.9,22.5,34.9z"/>
		<path class="st1" d="M27.9,16.1c-3,0-5.4,2.4-5.4,5.4c0,3,2.4,5.4,5.4,5.4c3,0,5.4-2.4,5.4-5.4C33.3,18.5,30.9,16.1,27.9,16.1z"/>
		<path class="st2" d="M27.9,13.4c3,0,5.4-2.4,5.4-5.4c0-3-2.4-5.4-5.4-5.4c-3,0-5.4,2.4-5.4,5.4C22.5,11,25,13.4,27.9,13.4z"/>
		<path class="st2" d="M16.9,50.8c-3,0-5.4,2.4-5.4,5.4c0,3,2.4,5.4,5.4,5.4c3,0,5.4-2.4,5.4-5.4C22.2,53.2,19.8,50.8,16.9,50.8z"/>
		<path class="st1" d="M16.9,48.2c3,0,5.4-2.4,5.4-5.4c0-3-2.4-5.4-5.4-5.4c-3,0-5.4,2.4-5.4,5.4C11.5,45.7,13.9,48.2,16.9,48.2z"/>
		<path class="st2" d="M16.9,24c-3,0-5.4,2.4-5.4,5.4c0,3,2.4,5.4,5.4,5.4c3,0,5.4-2.4,5.4-5.4C22.2,26.4,19.8,24,16.9,24z"/>
		<path class="st2" d="M16.9,21.3c3,0,5.4-2.4,5.4-5.4c0-3-2.4-5.4-5.4-5.4c-3,0-5.4,2.4-5.4,5.4C11.5,18.9,13.9,21.3,16.9,21.3z"/>
		<path class="st1" d="M5.8,42.9c-3,0-5.4,2.4-5.4,5.4c0,3,2.4,5.4,5.4,5.4c3,0,5.4-2.4,5.4-5.4C11.2,45.3,8.8,42.9,5.8,42.9z"/>
		<path class="st1" d="M5.8,40.3c3,0,5.4-2.4,5.4-5.4c0-3-2.4-5.4-5.4-5.4c-3,0-5.4,2.4-5.4,5.4C0.4,37.9,2.8,40.3,5.8,40.3z"/>
		<path class="st1" d="M5.8,26.9c3,0,5.4-2.4,5.4-5.4c0-3-2.4-5.4-5.4-5.4c-3,0-5.4,2.4-5.4,5.4C0.4,24.4,2.8,26.9,5.8,26.9z"/>
		<path class="st1" d="M50.1,42.9c-3,0-5.4,2.4-5.4,5.4c0,3,2.4,5.4,5.4,5.4c3,0,5.4-2.4,5.4-5.4C55.4,45.3,53,42.9,50.1,42.9z"/>
		<path class="st1" d="M50.1,29.5c-3,0-5.4,2.4-5.4,5.4c0,3,2.4,5.4,5.4,5.4c3,0,5.4-2.4,5.4-5.4C55.4,31.9,53,29.5,50.1,29.5z"/>
		<path class="st1" d="M50.1,26.9c3,0,5.4-2.4,5.4-5.4c0-3-2.4-5.4-5.4-5.4c-3,0-5.4,2.4-5.4,5.4C44.7,24.4,47.1,26.9,50.1,26.9z"/>
		<path class="st2" d="M39,50.8c-3,0-5.4,2.4-5.4,5.4c0,3,2.4,5.4,5.4,5.4c3,0,5.4-2.4,5.4-5.4C44.4,53.2,42,50.8,39,50.8z"/>
		<path class="st2" d="M39,48.2c3,0,5.4-2.4,5.4-5.4c0-3-2.4-5.4-5.4-5.4c-3,0-5.4,2.4-5.4,5.4C33.6,45.7,36,48.2,39,48.2z"/>
		<path class="st1" d="M39,24c-3,0-5.4,2.4-5.4,5.4c0,3,2.4,5.4,5.4,5.4c3,0,5.4-2.4,5.4-5.4C44.4,26.4,42,24,39,24z"/>
		<path class="st2" d="M39,21.3c3,0,5.4-2.4,5.4-5.4c0-3-2.4-5.4-5.4-5.4c-3,0-5.4,2.4-5.4,5.4C33.6,18.9,36,21.3,39,21.3z"/>
	</g>
</g>
</svg>
